# xmcd
#
# Track frame offsets:
#	150
#	19381
#	35218
#	52565
#	71292
#	92234
#	109730
#	128840
#	144106
#	168514
#	194540
#	212241
#	230972
#	252117
#	284669
#	305672
#
# Disc length: 4289 seconds
#
# Revision: 2
# Processed by: cddbd v1.5.2PL0 Copyright (c) Steve Scherf et al.
# Submitted via: EasyCDDAExtractor 15.3.0.1
#
DISCID=f010bf10
DTITLE=Ednita Nazario - La Diva
DYEAR=2010
DGENRE=Latin
TTITLE0=A Que No Le Cuentas
TTITLE1=La Prohibida
TTITLE2=Tu, Sin Mi
TTITLE3=Retrato De Mujer (Ritratto Di Donna)
TTITLE4=Lo Que Son Las Cosas
TTITLE5=Un Corazon Hecho Pedazos
TTITLE6=Como Antes
TTITLE7=Devuelveme
TTITLE8=Tu Sabes Bien (Duo Con La Ley) (Version Acustica)
TTITLE9=Mas Grande Que Grande (Version Acustica)
TTITLE10=A Que No Te Vas
TTITLE11=Si No Me Amas
TTITLE12=Vengada
TTITLE13=Quiero Que Me Hagas El Amor (En Vivo)
TTITLE14=Lloviendo Flores (En Vivo)
TTITLE15=No Te Mentia
EXTD=
EXTT0=
EXTT1=
EXTT2=
EXTT3=
EXTT4=
EXTT5=
EXTT6=
EXTT7=
EXTT8=
EXTT9=
EXTT10=
EXTT11=
EXTT12=
EXTT13=
EXTT14=
EXTT15=
PLAYORDER=
